{
  "asset": {
    "generator": "glTF-Transform v4.4.2",
    "version": "2.0"
  },
  "accessors": [
    {
      "type": "SCALAR",
      "componentType": 5123,
      "count": 35118,
      "bufferView": 0,
      "byteOffset": 0
    },
    {
      "type": "SCALAR",
      "componentType": 5123,
      "count": 5106,
      "bufferView": 0,
      "byteOffset": 70236
    },
    {
      "type": "VEC3",
      "componentType": 5126,
      "count": 23416,
      "max": [
        1.6017910242080688,
        18.095012664794922,
        2.0863542556762695
      ],
      "min": [
        -1.5909857749938965,
        14.577457427978516,
        -0.41334372758865356
      ],
      "bufferView": 1,
      "byteOffset": 0
    },
    {
      "type": "VEC3",
      "componentType": 5126,
      "count": 23416,
      "bufferView": 1,
      "byteOffset": 12
    },
    {
      "type": "VEC2",
      "componentType": 5126,
      "count": 23416,
      "bufferView": 1,
      "byteOffset": 24
    },
    {
      "type": "VEC3",
      "componentType": 5126,
      "count": 3395,
      "max": [
        2.825230121612549,
        15.046609878540039,
        2.757188081741333
      ],
      "min": [
        -3.3941004276275635,
        -0.012269865721464157,
        -2.9045324325561523
      ],
      "bufferView": 2,
      "byteOffset": 0
    },
    {
      "type": "VEC3",
      "componentType": 5126,
      "count": 3395,
      "bufferView": 2,
      "byteOffset": 12
    },
    {
      "type": "VEC2",
      "componentType": 5126,
      "count": 3395,
      "bufferView": 2,
      "byteOffset": 24
    }
  ],
  "bufferViews": [
    {
      "buffer": 0,
      "byteOffset": 0,
      "byteLength": 80448,
      "target": 34963
    },
    {
      "buffer": 0,
      "byteOffset": 80448,
      "byteLength": 749312,
      "byteStride": 32,
      "target": 34962
    },
    {
      "buffer": 0,
      "byteOffset": 829760,
      "byteLength": 108640,
      "byteStride": 32,
      "target": 34962
    }
  ],
  "buffers": [
    {
      "uri": "tree.bin",
      "byteLength": 938400
    }
  ],
  "materials": [
    {
      "name": "Leaves.002",
      "doubleSided": true,
      "pbrMetallicRoughness": {}
    },
    {
      "name": "Material.001",
      "doubleSided": true,
      "pbrMetallicRoughness": {}
    }
  ],
  "meshes": [
    {
      "name": "leaves.002",
      "primitives": [
        {
          "attributes": {
            "POSITION": 2,
            "NORMAL": 3,
            "TEXCOORD_0": 4
          },
          "mode": 4,
          "material": 0,
          "indices": 0
        }
      ]
    },
    {
      "name": "Mesh.003",
      "primitives": [
        {
          "attributes": {
            "POSITION": 5,
            "NORMAL": 6,
            "TEXCOORD_0": 7
          },
          "mode": 4,
          "material": 1,
          "indices": 1
        }
      ]
    }
  ],
  "nodes": [
    {
      "name": "leaves.001",
      "mesh": 0
    },
    {
      "name": "tree.001",
      "translation": [
        0,
        0,
        11.117192268371582
      ],
      "mesh": 1,
      "children": [
        0
      ]
    },
    {
      "name": "Pine_Tree",
      "rotation": [
        0,
        -1,
        0,
        7.549790126404332e-8
      ],
      "children": [
        1
      ]
    }
  ],
  "scenes": [
    {
      "name": "Scene",
      "nodes": [
        2
      ]
    }
  ],
  "scene": 0
}