{
	"asset": {
		"generator": "thin-leaves.mjs (card thinning + meshopt trunk)",
		"version": "2.0"
	},
	"scene": 0,
	"scenes": [
		{
			"name": "Scene",
			"nodes": [
				2
			]
		}
	],
	"nodes": [
		{
			"mesh": 0,
			"name": "leaves.001"
		},
		{
			"children": [
				0
			],
			"mesh": 1,
			"name": "tree.001",
			"translation": [
				0,
				0,
				11.117192268371582
			]
		},
		{
			"children": [
				1
			],
			"name": "Pine_Tree",
			"rotation": [
				0,
				-1,
				0,
				7.549790126404332e-8
			]
		}
	],
	"materials": [
		{
			"doubleSided": true,
			"name": "Leaves.002"
		},
		{
			"doubleSided": true,
			"name": "Material.001"
		}
	],
	"meshes": [
		{
			"name": "leaves.002",
			"primitives": [
				{
					"attributes": {
						"POSITION": 0,
						"NORMAL": 1,
						"TEXCOORD_0": 2
					},
					"indices": 3,
					"material": 0
				}
			]
		},
		{
			"name": "Mesh.003",
			"primitives": [
				{
					"attributes": {
						"POSITION": 4,
						"NORMAL": 5,
						"TEXCOORD_0": 6
					},
					"indices": 7,
					"material": 1
				}
			]
		}
	],
	"accessors": [
		{
			"bufferView": 0,
			"componentType": 5126,
			"count": 267923,
			"type": "VEC3",
			"min": [
				-5.67896,
				-0.01223,
				-5.51991
			],
			"max": [
				5.51738,
				18.09501,
				5.34225
			]
		},
		{
			"bufferView": 1,
			"componentType": 5126,
			"count": 267923,
			"type": "VEC3"
		},
		{
			"bufferView": 2,
			"componentType": 5126,
			"count": 267923,
			"type": "VEC2"
		},
		{
			"bufferView": 3,
			"componentType": 5125,
			"count": 315495,
			"type": "SCALAR"
		},
		{
			"bufferView": 4,
			"componentType": 5126,
			"count": 5001,
			"type": "VEC3",
			"min": [
				null
			],
			"max": [
				null
			]
		},
		{
			"bufferView": 5,
			"componentType": 5126,
			"count": 5001,
			"type": "VEC3"
		},
		{
			"bufferView": 6,
			"componentType": 5126,
			"count": 5001,
			"type": "VEC2"
		},
		{
			"bufferView": 7,
			"componentType": 5123,
			"count": 11895,
			"type": "SCALAR"
		}
	],
	"bufferViews": [
		{
			"buffer": 0,
			"byteOffset": 0,
			"byteLength": 3215076,
			"target": 34962
		},
		{
			"buffer": 0,
			"byteOffset": 3215076,
			"byteLength": 3215076,
			"target": 34962
		},
		{
			"buffer": 0,
			"byteOffset": 6430152,
			"byteLength": 2143384,
			"target": 34962
		},
		{
			"buffer": 0,
			"byteOffset": 8573536,
			"byteLength": 1261980,
			"target": 34963
		},
		{
			"buffer": 0,
			"byteOffset": 9835516,
			"byteLength": 60012,
			"target": 34962
		},
		{
			"buffer": 0,
			"byteOffset": 9895528,
			"byteLength": 60012,
			"target": 34962
		},
		{
			"buffer": 0,
			"byteOffset": 9955540,
			"byteLength": 40008,
			"target": 34962
		},
		{
			"buffer": 0,
			"byteOffset": 9995548,
			"byteLength": 23790,
			"target": 34963
		}
	],
	"buffers": [
		{
			"byteLength": 10019338,
			"uri": "tree.bin"
		}
	]
}